<?xml version="1.0" standalone="no"?>
<!DOCTYPE svg PUBLIC "-//W3C//DTD SVG 20010904//EN"
 "http://www.w3.org/TR/2001/REC-SVG-20010904/DTD/svg10.dtd">
<svg version="1.0" xmlns="http://www.w3.org/2000/svg"
 width="637.000000pt" height="640.000000pt" viewBox="0 0 637.000000 640.000000"
 preserveAspectRatio="xMidYMid meet">

<g transform="translate(0.000000,640.000000) scale(0.100000,-0.100000)"
fill="#000000" stroke="none">
<path d="M819 4172 c-14 -16 -24 -18 -63 -12 -26 4 -64 3 -84 -1 -20 -4 -50
-11 -67 -14 -16 -4 -39 -10 -50 -15 -11 -5 -44 -11 -74 -14 -29 -3 -63 -12
-76 -20 -26 -17 -99 -39 -140 -42 -118 -9 -153 -19 -188 -55 -10 -11 -31 -19
-47 -19 l-30 0 0 -1990 0 -1990 1846 0 1846 0 -6 48 c-3 26 -17 146 -31 267
-14 121 -32 264 -40 318 -8 54 -15 114 -15 134 0 20 -13 107 -29 192 -16 86
-36 230 -45 321 -22 212 -45 397 -56 435 -5 17 -16 89 -25 160 -8 72 -18 140
-20 153 -3 12 -2 22 3 22 13 0 32 -72 32 -123 0 -25 14 -114 30 -199 28 -143
50 -317 70 -568 5 -58 15 -129 24 -158 8 -29 20 -95 26 -145 7 -51 18 -133 26
-183 8 -50 14 -109 14 -130 0 -22 6 -73 14 -114 7 -41 22 -155 31 -252 18
-175 30 -220 38 -135 l4 42 1 -42 c2 -36 5 -43 22 -43 18 0 19 5 12 83 -8 90
-8 165 0 302 3 50 1 131 -4 180 -5 50 -11 212 -13 362 -2 149 -7 325 -10 390
-8 134 -25 178 -25 64 0 -58 -5 -81 -21 -108 -16 -26 -23 -59 -29 -139 -4 -58
-11 -108 -15 -112 -7 -6 -3 83 11 258 6 73 14 93 14 35 0 -21 3 -35 7 -32 3 4
6 73 7 153 1 106 -3 152 -12 165 -7 11 -12 34 -10 52 2 26 8 33 29 35 25 3 27
0 38 -60 6 -35 17 -110 25 -168 8 -58 24 -148 35 -200 11 -52 23 -113 27 -135
8 -38 9 -37 14 30 l5 70 14 -43 c8 -23 20 -47 27 -53 11 -9 10 -15 -2 -34 -9
-13 -13 -29 -9 -36 4 -6 9 -28 10 -48 2 -20 8 -90 13 -156 6 -69 7 -135 3
-155 -6 -22 -10 -27 -11 -15 -1 11 -8 61 -15 110 l-13 90 4 -150 c5 -209 37
-472 60 -496 5 -4 6 72 1 169 -4 97 -7 182 -7 187 1 6 4 53 9 105 4 52 7 137
7 188 -1 74 2 91 13 87 10 -4 12 1 8 17 -4 12 -2 27 3 33 12 14 15 94 5 125
-4 14 -15 31 -24 38 -14 12 -11 13 17 8 30 -5 32 -4 27 17 -5 20 -8 34 -14 67
-1 3 -5 -2 -11 -10 -14 -22 -21 -7 -14 29 5 25 10 30 25 26 14 -5 17 -2 13 9
-3 9 -9 16 -13 16 -3 0 -4 29 -3 65 5 86 -15 205 -34 205 -7 0 -20 14 -29 30
-9 17 -11 30 -6 30 5 0 13 -9 16 -20 10 -30 20 -24 35 20 10 30 20 42 39 46
14 3 49 11 76 19 l50 13 -40 1 c-32 1 -37 4 -22 12 12 7 15 15 8 27 -10 21 -4
42 13 42 7 0 31 9 54 20 22 11 43 20 46 20 2 0 7 -32 11 -71 4 -39 11 -83 16
-97 7 -20 8 -14 4 26 -4 50 -3 52 20 52 31 0 33 20 3 20 -22 1 -21 2 4 13 22
10 24 14 12 25 -11 10 -14 10 -14 -1 0 -7 -7 -14 -15 -14 -10 0 -15 10 -15 27
0 14 -5 31 -11 37 -16 16 -3 47 16 39 9 -3 15 1 15 10 0 10 -6 14 -15 11 -8
-4 -17 -2 -20 3 -4 6 1 10 9 10 16 0 16 5 -5 113 -11 60 -12 110 0 103 4 -3
11 -24 15 -47 11 -67 49 -189 59 -189 6 0 8 32 4 78 -5 76 -22 127 -54 164 -8
9 -13 23 -11 30 3 8 11 1 21 -18 9 -17 23 -36 31 -43 9 -8 16 -26 16 -42 0
-16 5 -29 11 -29 7 0 9 14 5 43 -6 46 -15 149 -20 240 -4 58 -16 93 -16 46 0
-13 -5 -31 -10 -39 -7 -11 -10 -4 -10 28 0 24 -5 42 -11 42 -7 0 -20 9 -30 21
-9 11 -23 19 -31 18 -7 -1 -39 10 -72 24 -32 15 -62 27 -67 27 -5 0 -9 7 -9
16 0 8 -4 13 -8 10 -10 -6 -79 17 -132 44 -20 10 -40 16 -44 13 -3 -4 -6 -1
-6 6 0 8 8 10 23 7 l22 -6 -22 11 c-26 14 -32 34 -7 25 17 -6 54 9 54 23 0 8
-39 11 -185 15 -22 1 -43 6 -47 11 -4 6 -8 -1 -8 -15 l-1 -25 -14 25 c-14 24
-14 24 -15 3 0 -16 -5 -20 -20 -16 -16 4 -20 0 -20 -18 0 -13 5 -31 10 -39 8
-12 10 -10 11 10 1 16 4 8 10 -19 15 -77 -36 -261 -72 -261 -6 0 -8 15 -5 33
15 96 16 111 7 97 -5 -8 -12 -46 -16 -85 l-8 -70 -11 42 c-12 45 -26 67 -26
39 0 -9 -7 -32 -15 -52 -8 -19 -15 -38 -16 -42 -2 -4 -8 -13 -16 -20 -23 -24
-34 -3 -29 57 6 63 14 91 27 91 5 0 9 7 9 15 0 22 32 55 52 55 10 0 18 5 18
11 0 6 -7 9 -15 5 -18 -6 -18 -5 -4 31 23 60 49 247 39 283 -5 19 -8 9 -14
-40 -10 -83 -43 -145 -117 -215 -60 -57 -91 -71 -82 -35 4 15 0 20 -15 20 -11
0 -22 -5 -24 -12 -8 -22 -38 1 -60 47 -12 25 -26 45 -31 45 -12 0 -5 133 7
142 16 11 4 17 -44 20 -67 5 -122 36 -143 80 -17 34 -17 40 -3 65 8 16 17 36
20 46 5 15 15 17 53 15 47 -3 48 -2 45 24 -3 26 -31 88 -51 112 -9 11 -1 16
35 26 l46 13 -6 62 c-5 49 -3 65 9 75 21 17 19 57 -5 90 -25 35 -12 46 36 30
19 -7 38 -10 41 -7 6 7 -72 64 -98 72 -28 9 -23 23 11 30 40 9 39 35 -2 60
-18 10 -39 26 -45 34 -12 14 -14 14 -27 -1 -15 -20 -41 -24 -51 -8 -3 6 1 13
9 16 8 3 18 14 21 23 3 10 21 27 41 37 29 16 35 23 31 44 -11 54 3 81 51 103
88 38 223 60 236 38 4 -5 -7 -12 -24 -16 -32 -7 -37 -28 -12 -54 8 -8 11 -22
9 -33 -3 -10 2 -22 11 -28 10 -5 12 -10 5 -10 -7 0 -13 -4 -13 -10 0 -5 19 -9
43 -8 23 0 52 0 65 -1 27 -1 72 -46 72 -72 0 -11 5 -18 12 -17 14 3 25 -39 27
-104 0 -27 5 -48 10 -48 5 0 8 -7 7 -16 -2 -26 21 -27 27 -2 4 13 16 57 27 98
15 53 21 101 20 165 -1 50 -2 98 -1 108 0 10 -5 15 -12 11 -7 -3 0 4 16 16 29
24 37 60 11 60 -8 0 -23 7 -31 16 -9 8 -24 13 -35 11 -11 -3 -24 3 -33 16
l-15 21 0 -24 c-1 -22 -2 -23 -11 -8 -6 11 -16 15 -26 11 -12 -5 -15 -2 -10
10 5 12 -1 15 -25 15 -16 -1 -34 5 -39 13 -13 21 -11 29 6 23 8 -4 22 -1 30 6
13 11 20 9 40 -10 22 -20 25 -21 31 -6 7 18 -29 56 -53 56 -7 0 -13 4 -13 8 0
5 -26 15 -57 22 -32 7 -74 21 -94 31 -40 20 -104 20 -268 -1 -101 -12 -125
-21 -205 -78 -88 -61 -151 -132 -167 -184 -7 -27 -17 -48 -21 -48 -4 0 -10
-16 -14 -36 -5 -28 -2 -42 15 -65 24 -33 28 -52 17 -87 -5 -16 -3 -24 9 -28
10 -4 12 -10 6 -18 -13 -16 -22 -96 -10 -96 5 0 9 -14 9 -31 0 -26 -3 -30 -17
-24 -10 4 -31 9 -47 12 -16 2 -40 16 -55 29 -16 15 -34 23 -48 21 -14 -3 -20
0 -16 9 7 19 -60 50 -115 53 -9 1 -11 8 -7 20 4 14 0 21 -15 26 -11 3 -20 10
-20 15 0 4 -9 10 -20 13 -11 3 -24 16 -29 29 -9 25 -20 26 -161 15 -29 -2 -50
-18 -43 -31 3 -4 9 -2 14 5 6 10 15 9 44 -7 20 -10 46 -29 57 -41 12 -13 30
-23 40 -23 10 0 18 -7 18 -15 0 -13 50 -29 75 -25 24 5 35 -1 35 -20 0 -16 -7
-20 -32 -20 -18 0 -42 7 -52 15 -28 21 -33 19 -28 -15 4 -25 8 -29 27 -24 13
3 26 0 30 -6 11 -17 -16 -30 -37 -19 -15 8 -18 6 -18 -11 0 -13 7 -20 20 -20
17 0 20 -7 20 -40 0 -29 4 -40 15 -40 16 0 19 5 29 53 4 15 13 27 21 27 8 0
15 -12 17 -27 2 -17 9 -28 18 -28 8 0 26 -10 39 -22 13 -11 37 -24 52 -27 17
-3 29 -12 29 -21 0 -18 23 -19 51 -2 18 10 23 9 40 -12 29 -35 23 -112 -8
-126 -13 -5 -23 -18 -23 -27 0 -21 1 -21 -39 -7 -24 9 -31 16 -29 33 3 19 -2
21 -47 21 l-50 0 2 35 c2 19 0 29 -3 23 -8 -19 -21 -16 -27 6 -5 20 -54 34
-76 21 -31 -17 -49 0 -56 56 -7 55 -21 77 -35 53 -11 -17 -40 6 -40 32 0 12
-7 19 -19 19 -10 0 -21 7 -25 15 -3 8 -12 15 -20 15 -7 0 -16 11 -18 25 -3 14
-1 25 3 25 5 0 9 18 9 40 0 29 4 40 15 40 11 0 15 -11 15 -39 0 -22 6 -44 15
-51 21 -17 22 -13 17 42 -3 31 -9 48 -20 52 -10 3 -28 10 -41 16 -21 9 -23 8
-17 -15 6 -24 -7 -35 -18 -16 -3 5 -17 11 -31 13 -20 4 -25 1 -25 -14 0 -15
-4 -18 -17 -12 -10 4 -28 7 -40 7 -16 -1 -23 5 -23 18 0 12 -7 19 -19 19 -11
0 -22 4 -25 9 -3 4 -29 11 -57 13 -32 3 -55 11 -60 20 -6 10 -20 15 -40 13
-23 -2 -33 2 -36 15 -3 10 -16 23 -29 29 -21 9 -24 17 -22 53 3 43 3 43 -31
43 -19 0 -36 6 -38 13 -3 6 -13 12 -24 12 -10 0 -19 7 -19 15 0 11 -11 15 -40
15 -29 0 -40 4 -40 15 0 10 -10 15 -29 15 -16 0 -36 -7 -45 -15 -21 -22 -23
-20 -30 30 -5 31 -15 51 -33 65 -15 12 -20 20 -12 20 9 0 7 5 -5 12 -10 6 -50
12 -87 14 -41 2 -79 10 -93 19 -15 10 -42 15 -73 14 -52 -3 -73 4 -73 24 0 7
-14 20 -30 29 -17 9 -30 24 -30 33 0 8 -4 15 -10 15 -5 0 -10 -5 -10 -10 0 -6
-10 -2 -22 10 -12 11 -27 20 -34 20 -6 0 -24 3 -40 6 -21 4 -33 0 -45 -14z
m2532 -109 c5 -14 8 -28 5 -30 -8 -8 -36 29 -36 48 0 26 18 15 31 -18z m84
-14 l20 -12 -20 23 c-13 15 -15 21 -6 18 21 -6 35 -33 28 -52 -6 -16 -9 -16
-37 4 -17 12 -35 31 -42 43 -11 21 -11 21 13 4 13 -9 33 -22 44 -28z m-320
-49 c3 -6 -1 -7 -9 -4 -18 7 -21 14 -7 14 6 0 13 -4 16 -10z m-1981 -37 c-9
-50 -12 -52 -34 -23 -26 33 -26 54 0 47 11 -3 20 -1 20 4 0 5 5 9 10 9 7 0 8
-14 4 -37z m157 27 c23 -13 25 -30 4 -30 -8 0 -15 6 -15 14 0 8 -6 17 -12 19
-7 3 -9 6 -5 6 5 1 17 -4 28 -9z m97 -188 c2 -7 -5 -12 -17 -12 -14 0 -19 5
-14 15 6 17 25 15 31 -3z m1372 -137 c0 -8 -4 -15 -10 -15 -5 0 -10 7 -10 15
0 8 5 15 10 15 6 0 10 -7 10 -15z m-1043 -41 c-9 -9 -28 6 -21 18 4 6 10 6 17
-1 6 -6 8 -13 4 -17z m-457 -9 c10 -12 9 -15 -8 -15 -11 0 -22 7 -26 15 -3 9
0 15 8 15 7 0 19 -7 26 -15z m680 -19 c0 -3 -4 -8 -10 -11 -5 -3 -10 -1 -10 4
0 6 5 11 10 11 6 0 10 -2 10 -4z m-145 -26 c3 -5 1 -10 -4 -10 -6 0 -11 5 -11
10 0 6 2 10 4 10 3 0 8 -4 11 -10z m-104 -39 c17 -16 18 -20 5 -30 -12 -10
-18 -7 -31 18 -18 35 -5 41 26 12z m309 4 c0 -8 -7 -15 -15 -15 -16 0 -20 12
-8 23 11 12 23 8 23 -8z m-472 -36 c15 -23 2 -49 -24 -49 -19 0 -17 17 3 29
14 8 15 12 4 25 -7 9 -9 16 -5 16 5 0 15 -9 22 -21z m-481 -31 c-3 -8 -6 -5
-6 6 -1 11 2 17 5 13 3 -3 4 -12 1 -19z m1447 0 c18 -29 1 -30 -50 -3 l-49 26
44 -3 c28 -2 48 -9 55 -20z m-767 -12 c4 -7 15 -16 23 -19 8 -3 -4 -6 -27 -6
-31 -1 -43 3 -43 13 0 13 13 23 32 25 4 1 11 -5 15 -13z m-164 -28 c24 0 35
-6 44 -24 6 -13 8 -24 4 -24 -3 0 -11 -10 -16 -22 -12 -28 -47 -35 -65 -13 -9
11 -9 15 -1 15 8 0 7 6 -3 16 -18 17 -22 69 -5 59 6 -4 25 -7 42 -7z m1409
-15 c32 -35 43 -102 21 -133 l-16 -22 -21 25 c-27 33 -64 44 -72 23 -3 -9 -10
-13 -15 -10 -5 3 -9 0 -9 -7 0 -8 -4 -8 -15 1 -8 7 -15 19 -15 26 0 8 7 14 15
14 11 0 15 11 15 43 0 24 5 48 12 55 22 22 72 14 100 -15z m-412 -13 c0 -5 -4
-10 -10 -10 -5 0 -10 5 -10 10 0 6 5 10 10 10 6 0 10 -4 10 -10z m273 -28 c-3
-12 -12 -22 -19 -22 -12 0 -11 5 2 25 19 30 26 28 17 -3z m-116 -74 c-3 -7 -5
-2 -5 12 0 14 2 19 5 13 2 -7 2 -19 0 -25z m-1173 -44 c7 -18 0 -34 -15 -34
-5 0 -9 11 -9 25 0 28 15 34 24 9z m591 -44 c3 -5 -1 -10 -9 -10 -9 0 -16 5
-16 10 0 6 4 10 9 10 6 0 13 -4 16 -10z m883 -16 c12 -4 22 -10 22 -15 0 -14
-34 -10 -56 6 -21 16 -8 20 34 9z m-1564 -49 c20 -15 14 -35 -12 -35 -27 0
-43 15 -36 33 7 20 23 21 48 2z m1086 -65 c0 -31 4 -40 17 -40 13 0 14 -3 5
-12 -9 -9 -18 -9 -37 0 -21 10 -25 18 -25 52 0 33 3 40 20 40 17 0 20 -7 20
-40z m107 3 c-3 -10 -5 -4 -5 12 0 17 2 24 5 18 2 -7 2 -21 0 -30z m-942 2
c18 -8 17 -9 -8 -13 -34 -4 -42 1 -33 25 4 11 10 13 14 7 4 -6 16 -14 27 -19z
m975 14 c0 -5 5 -7 10 -4 6 4 10 -6 9 -22 0 -25 -1 -26 -9 -8 -5 11 -9 14 -9
7 -1 -21 -21 -3 -21 19 0 10 5 19 10 19 6 0 10 -5 10 -11z m318 -65 c-7 -6
-58 9 -58 18 0 5 5 6 10 3 6 -3 10 -1 10 6 0 7 8 5 20 -6 11 -10 19 -19 18
-21z m-580 -14 c13 -21 9 -40 -9 -40 -5 0 -9 11 -9 24 0 18 -7 26 -22 29 -22
4 -21 4 2 6 16 0 30 -7 38 -19z m200 -6 c39 -11 26 -30 -18 -26 -26 3 -40 9
-40 18 0 15 21 18 58 8z m-1088 -39 c7 18 8 19 15 3 8 -21 0 -48 -15 -48 -15
0 -28 40 -21 65 5 16 7 15 10 -10 3 -26 4 -27 11 -10z m794 19 c3 -8 2 -12 -4
-9 -6 3 -10 10 -10 16 0 14 7 11 14 -7z m-224 -24 c8 -16 8 -24 -4 -35 -22
-22 -29 -18 -22 12 5 17 3 29 -6 34 -10 7 -9 9 4 9 10 0 22 -9 28 -20z m580 1
c0 -5 -9 -11 -20 -14 -17 -4 -18 -2 -9 14 9 18 29 18 29 0z m-283 -7 c-3 -3
-12 -4 -19 -1 -8 3 -5 6 6 6 11 1 17 -2 13 -5z m348 -24 c-1 -11 -7 -26 -15
-33 -10 -10 -12 -8 -7 11 3 14 1 22 -8 22 -8 0 -17 5 -20 10 -4 6 6 10 23 10
23 0 28 -4 27 -20z m-1065 -16 c0 -8 -4 -12 -10 -9 -5 3 -10 10 -10 16 0 5 5
9 10 9 6 0 10 -7 10 -16z m611 0 c19 -17 15 -44 -6 -44 -18 0 -48 37 -40 49 9
15 26 14 46 -5z m347 -1 c5 -17 -26 -29 -40 -15 -6 6 -7 15 -3 22 9 14 37 9
43 -7z m-1074 -28 c-3 -7 -16 -15 -28 -17 -19 -4 -23 0 -23 18 0 25 24 36 44
21 6 -4 10 -14 7 -22z m596 -6 c0 -15 -4 -19 -16 -15 -9 3 -21 6 -27 6 -12 0
23 29 36 30 4 0 7 -9 7 -21z m-2019 1 c12 0 19 -7 19 -19 0 -11 4 -22 9 -25 5
-3 12 -23 16 -43 3 -21 9 -48 12 -60 4 -18 1 -23 -16 -23 -12 0 -21 -6 -21
-15 0 -8 -6 -15 -14 -15 -8 0 -17 -7 -20 -16 -6 -15 -8 -15 -26 1 -11 10 -20
24 -20 32 0 7 -7 13 -15 13 -11 0 -15 14 -16 58 -1 31 -2 68 -3 82 -1 32 12
42 48 35 16 -3 37 -5 47 -5z m1569 -22 c0 -5 -7 -3 -15 6 -8 8 -15 18 -15 22
0 3 7 1 15 -6 8 -7 15 -17 15 -22z m943 10 c-6 -7 -13 -20 -15 -28 -5 -12 -7
-12 -13 4 -5 11 -3 21 6 27 21 13 33 11 22 -3z m-1053 -36 c0 -9 6 -12 16 -8
19 7 70 -29 54 -39 -5 -3 -10 -15 -10 -26 0 -28 -30 -37 -46 -14 -13 18 -14
17 -14 -9 0 -15 4 -25 10 -21 5 3 19 -10 31 -29 12 -20 25 -36 30 -36 15 0 10
27 -8 41 -14 12 -11 15 33 19 45 5 49 8 54 34 6 36 36 58 50 36 12 -20 2 -32
-21 -25 -16 5 -19 1 -19 -23 0 -17 6 -32 15 -36 20 -7 19 -43 -2 -54 -15 -9
-14 -10 4 -16 11 -3 30 -18 43 -31 l23 -25 -41 0 c-23 0 -42 -4 -42 -10 0 -5
-11 -10 -24 -10 -14 0 -28 5 -31 10 -3 6 -12 10 -20 10 -8 0 -26 5 -41 10 -26
10 -26 11 -9 30 17 19 17 20 -3 20 -12 0 -31 8 -42 18 -11 9 -35 19 -53 22
-31 5 -44 27 -23 42 6 4 5 16 -4 33 -10 19 -11 28 -2 37 9 9 12 9 12 0 0 -18
47 -15 54 3 4 11 -3 19 -19 25 -41 16 -30 41 17 38 16 -1 28 -8 28 -16z m942
-14 c-10 -10 -62 0 -62 12 0 13 43 17 58 6 8 -5 9 -13 4 -18z m-202 -14 c0 -8
-4 -14 -10 -14 -5 0 -10 9 -10 21 0 11 5 17 10 14 6 -3 10 -13 10 -21z m-620
-35 c0 -16 -4 -28 -9 -25 -5 3 -8 17 -8 31 0 14 3 25 8 25 5 0 9 -14 9 -31z
m1129 9 c0 -13 -4 -32 -9 -43 -7 -14 -8 -9 -4 18 4 24 2 37 -5 37 -6 0 -12
-12 -12 -27 -1 -18 -3 -22 -6 -10 -7 25 3 47 22 47 9 0 15 -9 14 -22z m-2369
-13 c0 -14 5 -25 10 -25 6 0 10 -5 10 -10 0 -6 9 -20 20 -32 11 -12 20 -32 20
-45 0 -13 5 -23 11 -23 8 0 8 -5 -1 -15 -15 -18 -30 -10 -30 16 0 14 -5 19
-17 17 -11 -2 -17 -11 -15 -23 2 -16 -4 -20 -27 -21 -17 -1 -32 5 -35 12 -3 8
1 14 9 14 16 0 17 2 20 75 4 80 4 85 15 85 6 0 10 -11 10 -25z m2100 16 c0 -6
-4 -13 -10 -16 -5 -3 -10 1 -10 9 0 9 5 16 10 16 6 0 10 -4 10 -9z m60 -41 c0
-23 -13 -26 -29 -6 -9 11 -9 15 1 19 23 10 28 7 28 -13z m-7 -37 c-7 -2 -21
-2 -30 0 -10 3 -4 5 12 5 17 0 24 -2 18 -5z m1120 -50 c-7 -2 -19 -2 -25 0 -7
3 -2 5 12 5 14 0 19 -2 13 -5z m-3276 -84 c15 -7 38 -12 51 -13 32 -2 42 -23
35 -74 -5 -34 -2 -49 15 -72 21 -28 21 -28 2 -53 -22 -28 -26 -47 -9 -47 5 0
8 -4 5 -8 -9 -14 -96 11 -96 28 -1 12 -3 12 -14 -2 -18 -24 -46 -23 -46 1 0
11 -4 23 -10 26 -5 3 -10 -1 -10 -9 0 -9 -6 -13 -14 -10 -16 6 -27 52 -15 60
5 3 9 21 9 40 0 19 5 34 10 34 6 0 10 7 10 15 0 8 5 15 10 15 6 0 10 9 10 21
0 20 16 59 25 59 2 0 16 -5 32 -11z m3233 -117 c15 -48 33 -125 39 -172 6 -47
16 -101 21 -120 6 -19 10 -50 10 -70 0 -19 6 -52 14 -75 31 -92 34 -105 25
-105 -5 0 -9 -7 -9 -15 0 -8 -9 -15 -20 -15 -17 0 -19 3 -10 19 9 19 9 28 -6
69 -4 9 -6 27 -5 40 1 12 -2 22 -8 22 -6 0 -11 17 -11 38 0 21 -7 62 -15 92
-18 64 -35 178 -36 235 0 22 -6 58 -14 80 -7 22 -15 54 -19 70 -12 54 14 1 44
-93z m74 76 c3 -13 13 -32 21 -43 12 -16 18 -17 24 -7 5 9 10 -1 14 -29 3 -24
11 -45 16 -47 6 -2 11 -9 11 -15 0 -7 11 -25 25 -41 29 -33 32 -56 9 -56 -10
0 -14 6 -11 14 3 8 -3 24 -14 37 -10 12 -19 27 -19 34 0 6 -8 20 -18 31 -26
28 -82 119 -82 132 0 21 18 13 24 -10z m26 1 c0 -6 -4 -7 -10 -4 -5 3 -10 11
-10 16 0 6 5 7 10 4 6 -3 10 -11 10 -16z m-150 -65 c0 -12 3 -31 6 -41 3 -12
1 -10 -8 5 -12 20 -14 11 -18 -85 -8 -240 -3 -349 20 -419 15 -43 19 -69 12
-76 -6 -6 -14 8 -22 41 -17 73 -27 71 -29 -7 -2 -89 -10 -128 -30 -146 -15
-14 -16 -9 -14 62 2 42 4 154 6 249 2 155 1 172 -15 176 -23 6 -34 68 -16 98
12 22 13 20 16 -33 5 -87 23 -70 22 20 -1 42 3 93 8 112 l10 35 3 -45 c2 -25
3 -57 2 -72 -1 -16 4 -28 9 -28 7 0 9 31 4 93 -5 68 -3 88 5 77 8 -12 9 -8 5
15 -6 28 -5 29 9 11 8 -11 15 -30 15 -42z m234 6 c28 -42 32 -55 16 -45 -11 7
-53 85 -47 85 3 0 16 -18 31 -40z m-825 -73 c0 -21 -1 -21 -9 -2 -12 28 -12
37 0 30 6 -3 10 -16 9 -28z m1141 -57 c0 -8 -7 -2 -15 14 -19 36 -19 45 0 20
8 -10 14 -26 15 -34z m-1153 -2 c-3 -7 -5 -2 -5 12 0 14 2 19 5 13 2 -7 2 -19
0 -25z m433 -12 c0 -36 -17 -41 -18 -6 0 17 4 30 9 30 5 0 9 -11 9 -24z m746
-33 c-11 -11 -17 4 -9 23 7 18 8 18 11 1 2 -10 1 -21 -2 -24z m-174 -7 c15
-21 38 -88 26 -76 -3 3 -17 26 -31 53 -28 49 -24 63 5 23z m138 -16 c6 -11 8
-20 6 -20 -3 0 -10 9 -16 20 -6 11 -8 20 -6 20 3 0 10 -9 16 -20z m-3720 -10
c0 -11 -4 -20 -10 -20 -5 0 -10 2 -10 4 0 2 -3 11 -6 20 -4 11 -1 16 10 16 9
0 16 -8 16 -20z m3773 -18 c4 -18 3 -31 -2 -28 -10 7 -20 53 -13 61 7 7 8 5
15 -33z m-284 -2 c11 -24 11 -24 -3 -6 -9 11 -16 24 -16 30 0 12 5 7 19 -24z
m-912 -32 c-3 -8 -6 -5 -6 6 -1 11 2 17 5 13 3 -3 4 -12 1 -19z m1033 -149
c22 -28 40 -59 40 -69 0 -10 7 -23 15 -30 17 -15 20 -35 4 -24 -7 4 -25 9 -42
10 -37 5 -39 7 -31 28 6 16 8 16 26 -1 18 -16 19 -16 12 3 -4 10 -34 62 -66
115 -60 100 -82 150 -28 66 16 -26 48 -70 70 -98z m17 119 c-3 -8 -6 -5 -6 6
-1 11 2 17 5 13 3 -3 4 -12 1 -19z m-372 -126 c3 -61 1 -82 -8 -82 -8 0 -13
27 -14 91 -2 115 16 107 22 -9z m313 -13 c17 -27 5 -40 -14 -15 -8 11 -14 23
-14 28 0 15 15 8 28 -13z m-304 -143 c0 -19 -3 -35 -9 -36 -5 0 -11 21 -12 46
-1 33 2 43 9 36 6 -6 11 -26 12 -46z m-177 2 c-3 -7 -5 -2 -5 12 0 14 2 19 5
13 2 -7 2 -19 0 -25z m-223 14 c2 -4 -4 -26 -14 -47 -19 -40 -28 -54 -64 -108
l-18 -29 38 -40 c22 -22 59 -53 83 -69 25 -16 40 -29 33 -29 -7 0 -12 -7 -12
-15 0 -41 -61 -21 -131 42 -35 32 -39 33 -39 14 0 -29 -36 -28 -45 1 -7 21 2
187 11 221 10 32 34 20 34 -18 0 -19 3 -35 8 -35 4 0 24 27 46 60 35 55 57 72
70 52z m752 -9 c7 -10 14 -24 14 -30 0 -19 -17 -16 -24 5 -3 9 -9 23 -12 30
-9 18 7 15 22 -5z m48 8 c8 -13 -4 -42 -15 -35 -12 7 -12 44 0 44 6 0 12 -4
15 -9z m-174 -62 c0 -16 -4 -29 -10 -29 -5 0 -10 16 -10 36 0 21 4 33 10 29 6
-3 10 -19 10 -36z m86 -6 c-11 -11 -19 6 -11 24 8 17 8 17 12 0 3 -10 2 -21
-1 -24z m-231 7 c4 -6 10 -8 15 -5 4 3 5 -7 1 -22 -10 -36 -29 -40 -41 -8 -5
14 -10 31 -10 36 0 12 27 12 35 -1z m-55 -30 c0 -16 -4 -30 -10 -30 -11 0 -14
43 -3 53 11 12 13 8 13 -23z m-40 -25 c0 -16 -35 -21 -44 -6 -8 12 4 21 26 21
10 0 18 -7 18 -15z m-298 -7 c-17 -17 -15 -58 3 -58 8 0 15 -6 15 -14 0 -8 -7
-16 -15 -20 -9 -3 -15 -19 -15 -41 0 -40 -14 -46 -31 -13 -9 16 -9 37 1 90 11
58 16 68 34 68 15 0 17 -3 8 -12z m598 2 c0 -5 -4 -10 -10 -10 -5 0 -10 5 -10
10 0 6 5 10 10 10 6 0 10 -4 10 -10z m-375 -30 c-4 -12 -9 -19 -12 -17 -3 3
-2 15 2 27 4 12 9 19 12 17 3 -3 2 -15 -2 -27z m-517 -1 c4 -22 -40 -83 -63
-88 -19 -3 -19 -2 -3 15 9 11 21 32 27 47 10 25 9 27 -8 17 -27 -14 -30 -13
-24 11 4 16 12 19 37 17 18 -2 32 -9 34 -19z m865 1 c3 -11 1 -20 -4 -20 -5 0
-9 9 -9 20 0 11 2 20 4 20 2 0 6 -9 9 -20z m-293 -18 c0 -11 -8 -18 -20 -19
-11 -1 -20 2 -20 8 0 5 7 9 15 9 8 0 15 5 15 10 0 6 2 10 5 10 3 0 5 -8 5 -18z
m-162 -162 c0 -55 -1 -60 -8 -30 -4 19 -10 67 -12 105 -5 68 -5 69 8 30 7 -22
12 -69 12 -105z m172 120 c0 -5 -9 -10 -20 -10 -11 0 -20 5 -20 10 0 6 9 10
20 10 11 0 20 -4 20 -10z m140 -19 c0 -6 -4 -12 -8 -15 -5 -3 -9 1 -9 9 0 8 4
15 9 15 4 0 8 -4 8 -9z m-730 -29 c0 -12 -61 -45 -68 -37 -9 9 47 57 59 50 5
-4 9 -9 9 -13z m495 -177 c3 -99 9 -207 14 -240 8 -52 1 -89 -13 -74 -7 7 -28
211 -33 317 -2 56 -8 102 -13 102 -10 0 11 62 25 72 5 4 10 6 12 5 1 -2 5 -84
8 -182z m172 118 c-3 -10 -5 -2 -5 17 0 19 2 27 5 18 2 -10 2 -26 0 -35z
m-938 -21 c1 -7 -3 -10 -9 -7 -5 3 -10 18 -9 33 0 24 1 25 9 7 5 -11 9 -26 9
-33z m1011 -142 c0 -14 4 -30 9 -35 12 -14 21 -85 11 -85 -9 0 -21 37 -35 110
-4 19 -16 52 -26 72 -11 21 -19 48 -18 60 0 33 59 -88 59 -122z m-64 56 c3 -8
0 -23 -6 -33 -11 -17 -11 -17 -6 1 4 10 1 25 -5 32 -9 11 -9 14 0 14 6 0 14
-6 17 -14z m-689 -28 c-3 -8 -6 -5 -6 6 -1 11 2 17 5 13 3 -3 4 -12 1 -19z
m83 -3 c0 -8 -4 -15 -10 -15 -5 0 -10 7 -10 15 0 8 5 15 10 15 6 0 10 -7 10
-15z m17 -17 c-3 -8 -6 -5 -6 6 -1 11 2 17 5 13 3 -3 4 -12 1 -19z m59 -5
c-10 -10 -19 5 -10 18 6 11 8 11 12 0 2 -7 1 -15 -2 -18z m94 3 c0 -2 -7 -7
-16 -10 -8 -3 -12 -2 -9 4 6 10 25 14 25 6z m451 -154 c-8 -12 -10 4 -11 64 0
44 3 84 8 88 11 12 14 -132 3 -152z m-217 -163 c3 -24 14 -108 25 -187 20
-135 27 -252 16 -240 -3 3 -10 43 -15 89 -6 46 -19 149 -29 229 -17 129 -18
170 -5 157 2 -2 6 -24 8 -48z m73 -656 c-3 -10 -5 -4 -5 12 0 17 2 24 5 18 2
-7 2 -21 0 -30z m37 -218 c5 -86 7 -92 -23 100 -14 94 -12 114 4 40 8 -33 16
-96 19 -140z m-694 -76 c0 -5 -4 -9 -10 -9 -5 0 -10 7 -10 16 0 8 5 12 10 9 6
-3 10 -10 10 -16z m707 -56 c-3 -10 -5 -4 -5 12 0 17 2 24 5 18 2 -7 2 -21 0
-30z m-705 2 c0 -5 -5 -11 -11 -13 -6 -2 -11 4 -11 13 0 9 5 15 11 13 6 -2 11
-8 11 -13z"/>
<path d="M1558 3363 c6 -2 18 -2 25 0 6 3 1 5 -13 5 -14 0 -19 -2 -12 -5z"/>
<path d="M1746 2611 c-4 -7 -5 -15 -2 -18 9 -9 19 4 14 18 -4 11 -6 11 -12 0z"/>
<path d="M520 2520 c0 -5 5 -10 10 -10 6 0 10 5 10 10 0 6 -4 10 -10 10 -5 0
-10 -4 -10 -10z"/>
<path d="M442 2503 c5 -24 52 -24 56 0 3 13 -3 17 -28 17 -25 0 -31 -4 -28
-17z"/>
<path d="M1227 4164 c-9 -9 2 -24 17 -24 7 0 13 7 13 15 0 15 -18 20 -30 9z"/>
<path d="M1305 4133 c-27 -3 -53 -10 -57 -16 -9 -15 28 -36 65 -37 15 0 39 -7
52 -16 14 -9 31 -14 39 -11 8 3 17 -1 20 -10 4 -9 9 -13 13 -9 3 3 -2 15 -12
26 -18 20 -17 20 7 20 23 0 38 -16 38 -39 0 -4 -8 -16 -17 -27 -11 -11 -18
-35 -18 -59 l0 -40 43 4 c44 3 59 21 18 21 -25 0 -51 22 -39 33 13 13 90 7
103 -8 7 -8 19 -15 26 -15 9 0 14 -12 14 -36 0 -31 3 -35 22 -32 30 4 37 38 8
38 -18 0 -19 3 -10 20 8 14 8 26 0 40 -9 18 -8 20 15 20 29 0 33 19 9 55 -15
23 -62 41 -96 36 -9 -1 -22 6 -30 17 -7 10 -19 22 -26 26 -16 9 -44 -12 -35
-27 3 -6 1 -7 -5 -3 -7 4 -12 14 -12 22 0 14 -20 15 -135 7z m275 -105 c7 -18
15 -36 18 -40 2 -5 -8 -8 -22 -8 -14 0 -26 5 -26 10 0 6 -7 10 -15 10 -20 0
-19 11 3 38 22 29 25 28 42 -10z"/>
<path d="M1690 4030 c19 -13 30 -13 30 0 0 6 -10 10 -22 10 -19 0 -20 -2 -8
-10z"/>
<path d="M1644 3975 c-9 -23 3 -44 29 -54 16 -6 26 -20 30 -40 8 -40 22 -39
36 0 17 49 14 57 -21 61 -25 2 -34 8 -36 26 -4 25 -30 30 -38 7z"/>
<path d="M1775 3880 c3 -5 8 -10 11 -10 2 0 4 5 4 10 0 6 -5 10 -11 10 -5 0
-7 -4 -4 -10z"/>
<path d="M1860 3855 l-25 -14 33 -1 c22 0 32 -5 32 -15 0 -22 23 -18 38 6 7
12 12 23 9 25 -12 12 -65 12 -87 -1z"/>
<path d="M1960 3810 c0 -19 20 -27 33 -13 8 7 -11 33 -24 33 -5 0 -9 -9 -9
-20z"/>
<path d="M2030 3800 c0 -5 5 -10 10 -10 6 0 10 5 10 10 0 6 -4 10 -10 10 -5 0
-10 -4 -10 -10z"/>
<path d="M2040 3765 c0 -17 25 -28 83 -39 23 -4 37 -3 37 4 0 5 -6 10 -13 10
-7 0 -23 9 -35 20 -25 24 -72 27 -72 5z"/>
<path d="M2240 3551 c0 -23 28 -35 46 -20 11 9 11 15 3 25 -17 21 -49 17 -49
-5z"/>
<path d="M3667 3419 c4 -13 8 -18 11 -10 2 7 -1 18 -6 23 -8 8 -9 4 -5 -13z"/>
<path d="M3610 3414 c0 -8 5 -12 10 -9 6 4 8 11 5 16 -9 14 -15 11 -15 -7z"/>
<path d="M3626 3392 c-7 -11 5 -92 14 -92 12 0 22 64 11 68 -6 2 -7 10 -4 18
5 15 -12 20 -21 6z"/>
<path d="M3557 3383 c-4 -3 -7 -11 -7 -17 0 -6 5 -5 12 2 6 6 9 14 7 17 -3 3
-9 2 -12 -2z"/>
<path d="M3530 3321 c-14 -28 -12 -51 5 -51 22 0 18 -17 -5 -23 -11 -3 -20
-13 -20 -23 0 -16 1 -16 13 -2 6 9 23 18 37 20 34 4 37 32 6 68 -24 29 -26 29
-36 11z"/>
<path d="M2342 3319 c2 -6 8 -10 13 -10 5 0 11 4 13 10 2 6 -4 11 -13 11 -9 0
-15 -5 -13 -11z"/>
<path d="M2480 3295 c0 -10 10 -15 28 -15 26 1 26 1 8 15 -25 19 -36 19 -36 0z"/>
<path d="M3671 3274 c0 -11 3 -14 6 -6 3 7 2 16 -1 19 -3 4 -6 -2 -5 -13z"/>
<path d="M3647 3241 c-4 -17 -3 -21 5 -13 5 5 8 16 6 23 -3 8 -7 3 -11 -10z"/>
<path d="M3663 3215 c-3 -9 -3 -18 -1 -21 3 -3 8 4 11 16 6 23 -1 27 -10 5z"/>
<path d="M3616 3168 c-6 -20 -4 -48 5 -48 10 0 18 50 8 56 -5 3 -11 -1 -13 -8z"/>
<path d="M3470 3130 c0 -5 5 -10 10 -10 6 0 10 5 10 10 0 6 -4 10 -10 10 -5 0
-10 -4 -10 -10z"/>
<path d="M3571 3123 c-16 -13 -24 -37 -32 -88 -22 -150 -22 -149 1 -163 17
-10 21 -10 19 0 -3 28 2 38 21 38 11 0 20 5 20 10 0 6 -4 10 -9 10 -19 0 -41
32 -41 60 0 42 20 130 30 130 5 0 11 -8 13 -17 3 -11 5 -7 6 10 1 32 0 32 -28
10z"/>
<path d="M5360 3130 c0 -5 19 -10 43 -9 36 1 38 2 17 9 -36 12 -60 12 -60 0z"/>
<path d="M4320 3060 c0 -17 7 -20 40 -20 33 0 40 3 40 20 0 17 -7 20 -40 20
-33 0 -40 -3 -40 -20z"/>
<path d="M6320 3060 c0 -18 -7 -20 -80 -20 -73 0 -80 -2 -80 -20 0 -17 -7 -20
-40 -20 -33 0 -40 -3 -40 -20 0 -19 -7 -20 -200 -20 l-200 0 0 40 0 40 -280 0
c-242 0 -280 -2 -280 -15 0 -11 -11 -15 -40 -15 -29 0 -40 4 -40 15 0 9 -9 15
-25 15 -22 0 -25 -4 -25 -40 l0 -40 -135 0 -135 0 0 40 0 40 -40 0 -40 0 0
-40 0 -40 -240 0 -240 0 0 -40 0 -40 -55 0 -55 0 0 40 0 40 -65 0 -65 0 0 -80
0 -80 -31 0 c-20 0 -29 -4 -26 -12 2 -7 13 -12 23 -10 39 7 69 1 111 -19 24
-11 43 -25 43 -30 0 -5 20 -9 45 -9 39 0 45 -3 45 -21 0 -11 5 -29 10 -40 9
-16 7 -19 -15 -19 -32 0 -66 17 -83 42 -7 10 -20 18 -28 18 -8 0 -14 5 -14 10
0 6 -18 10 -40 10 -27 0 -40 -4 -40 -13 0 -8 18 -20 40 -27 28 -9 40 -19 40
-32 0 -11 4 -16 10 -13 5 3 23 -1 39 -10 17 -8 34 -15 38 -14 35 6 45 -16 13
-26 -30 -10 -24 -25 10 -25 49 0 166 -62 154 -82 -3 -4 2 -5 10 -2 18 7 21 -7
6 -22 -7 -7 -2 -20 16 -40 20 -22 25 -25 20 -9 -3 11 -1 27 4 35 8 13 13 13
41 -2 17 -10 44 -18 60 -18 21 0 32 -7 44 -30 8 -16 15 -38 15 -50 0 -11 5
-20 10 -20 6 0 10 8 8 17 -4 22 41 32 97 22 54 -10 57 -2 7 18 -23 9 -42 22
-42 29 0 7 -10 14 -22 16 -17 2 -24 11 -26 31 -3 28 -8 30 -53 27 -14 0 -31 6
-39 14 -7 9 -20 16 -29 16 -9 0 -22 4 -30 9 -11 7 -7 13 17 25 38 20 66 20 81
2 6 -7 32 -19 56 -26 25 -7 45 -19 45 -26 0 -8 7 -14 15 -14 14 0 54 -18 65
-30 3 -3 18 -12 34 -20 56 -29 66 -35 66 -42 0 -5 7 -8 15 -8 8 0 30 -16 50
-35 27 -27 35 -44 35 -70 0 -29 -4 -35 -22 -36 -14 -1 -5 -6 20 -12 23 -5 42
-14 42 -18 0 -5 15 -9 34 -9 57 0 90 -22 49 -33 -10 -3 3 -5 30 -6 26 0 47 -5
47 -9 0 -5 12 -13 28 -20 26 -11 25 -11 -13 -7 -22 3 -52 5 -66 5 -14 0 -36
10 -48 21 -16 15 -42 24 -87 28 -41 5 -74 15 -93 29 -28 20 -30 21 -71 5 -33
-13 -43 -14 -49 -4 -5 7 -11 12 -15 12 -3 -1 -6 2 -6 7 0 4 21 9 47 12 58 6
43 21 -19 19 -24 -1 -62 6 -85 15 -37 14 -47 14 -82 1 -61 -21 -118 4 -105 47
3 9 0 19 -6 23 -13 8 -13 -49 0 -75 20 -41 33 -64 91 -176 32 -63 59 -119 59
-125 0 -6 8 -23 19 -37 21 -31 51 -138 51 -185 0 -23 -11 -44 -40 -74 -21 -24
-46 -43 -55 -43 -8 0 -15 -4 -15 -9 0 -5 -9 -11 -20 -14 -16 -4 -20 -2 -15 12
3 11 -5 28 -22 45 -24 24 -28 26 -33 10 -5 -12 -9 -14 -14 -6 -8 13 50 89 74
97 14 4 50 54 50 69 0 3 -20 -14 -44 -38 -24 -24 -54 -50 -67 -56 -18 -10 -13
-1 19 37 45 55 56 79 20 46 -36 -32 -53 -39 -45 -20 4 10 2 30 -4 45 -10 25
-11 26 -24 9 -13 -18 -13 -18 -19 0 -3 10 -2 43 3 75 25 148 25 344 1 283 -5
-11 -11 -55 -15 -98 -5 -48 -14 -84 -23 -93 -16 -17 -17 -22 -27 -224 -3 -74
-11 -202 -16 -285 -5 -82 -14 -229 -19 -325 -11 -217 -18 -289 -36 -410 -8
-52 -19 -135 -24 -185 -25 -256 -58 -390 -99 -403 -8 -3 -11 0 -7 6 10 17 14
87 7 123 -6 28 -8 19 -14 -46 -7 -91 -14 -118 -31 -112 -13 4 -17 157 -5 157
5 0 4 12 -1 26 -6 14 -10 43 -10 65 0 24 -4 38 -10 34 -13 -8 -13 -71 1 -97 8
-15 8 -22 -1 -28 -7 -4 -12 -46 -14 -111 -2 -57 -7 -128 -11 -156 l-8 -53 227
0 c124 0 226 2 226 5 0 3 -23 19 -51 36 -57 36 -59 47 -3 24 l39 -16 -30 25
c-16 14 -33 25 -37 26 -5 0 -8 8 -8 18 0 21 71 55 97 45 17 -5 17 -4 -1 13
-13 14 -20 15 -23 7 -7 -19 -20 -16 -61 12 l-37 26 60 -6 60 -5 -40 20 -40 19
41 -2 c23 -1 41 -4 39 -7 -2 -3 14 -6 36 -6 38 -1 39 -1 23 17 -9 10 -25 21
-34 24 -19 6 -35 34 -25 43 3 3 14 -4 24 -15 11 -11 37 -31 58 -44 21 -12 41
-28 45 -33 4 -6 10 -7 14 -3 4 4 5 8 3 10 -2 2 -26 20 -53 40 -27 20 -45 37
-41 37 4 0 0 11 -9 25 -15 23 -14 29 7 26 12 -2 8 27 -5 33 -7 3 4 4 25 1 20
-3 37 -3 37 1 0 4 -12 23 -27 42 -15 20 -21 32 -14 28 6 -4 26 -12 44 -16 l32
-9 -33 30 c-39 35 -37 44 4 29 l28 -11 -19 22 -20 22 27 -7 c25 -6 28 -4 25
16 -1 13 -11 26 -22 30 -25 10 30 3 60 -7 19 -6 19 -6 -1 12 -12 10 -30 24
-40 30 -17 11 -15 12 11 7 l30 -7 -22 22 c-31 29 -29 34 12 29 42 -5 44 4 9
27 -14 9 -34 25 -45 36 -20 20 -20 20 18 13 21 -4 49 -11 62 -16 35 -13 37 -2
5 19 -30 19 -64 50 -64 57 0 9 75 -7 108 -22 19 -8 41 -30 52 -51 15 -28 19
-32 20 -15 0 21 -66 90 -108 113 -13 7 -19 17 -16 26 4 8 1 15 -6 15 -21 0 1
20 23 21 17 1 15 3 -8 9 -24 6 -26 8 -7 9 12 0 21 7 20 13 -2 9 13 14 47 15
40 2 55 -2 76 -21 29 -25 54 -65 46 -73 -3 -2 -11 5 -17 17 -21 39 -110 79
-110 50 0 -5 7 -10 15 -10 31 0 62 -24 89 -68 l28 -47 -17 -55 c-10 -30 -19
-61 -21 -68 -2 -7 -9 -10 -16 -6 -8 5 -9 2 -5 -10 6 -14 -1 -35 -21 -66 -2 -2
-7 2 -12 10 -7 11 -10 3 -10 -25 0 -22 -7 -51 -16 -63 -8 -12 -35 -95 -60
-185 -25 -89 -60 -193 -79 -230 -19 -37 -35 -70 -35 -72 0 -3 407 -5 905 -5
l905 0 0 1540 0 1540 -25 0 c-18 0 -25 -5 -25 -20z m-2130 -220 c0 -22 -4 -40
-9 -40 -12 0 -18 28 -13 58 7 37 22 25 22 -18z m480 0 c0 -29 -4 -40 -15 -40
-8 0 -15 6 -15 14 0 7 -11 21 -25 30 -36 24 -31 36 15 36 l40 0 0 -40z m-590
-49 c0 -5 -9 -7 -20 -4 -11 3 -20 7 -20 9 0 2 9 4 20 4 11 0 20 -4 20 -9z
m320 -116 c0 -9 -9 -15 -24 -15 -13 0 -26 7 -30 15 -4 11 2 15 24 15 20 0 30
-5 30 -15z m-172 -17 c-3 -25 -43 -37 -61 -19 -15 15 10 41 40 41 20 0 24 -4
21 -22z m100 -5 c-7 -8 0 -13 24 -15 l33 -3 -32 -17 c-27 -15 -32 -15 -37 -3
-3 8 -16 15 -28 15 -13 0 -29 4 -37 9 -25 16 -1 32 44 29 32 -2 41 -6 33 -15z
m-8 -190 c0 -5 -4 -15 -10 -23 -11 -18 -25 -7 -17 15 6 15 27 21 27 8z m640
-192 c0 -9 37 -17 120 -27 56 -7 65 -16 48 -43 -18 -29 -48 -26 -118 9 -33 17
-62 30 -65 30 -52 -1 -65 2 -65 14 0 8 8 16 18 18 37 8 62 7 62 -1z m240 -61
c0 -5 -4 -10 -9 -10 -6 0 -13 5 -16 10 -3 6 1 10 9 10 9 0 16 -4 16 -10z m88
-30 c7 -11 10 -20 6 -20 -7 0 -34 27 -34 34 0 13 16 5 28 -14z m142 -54 c0
-17 -27 -29 -35 -16 -4 6 -3 15 0 20 9 15 35 12 35 -4z m-276 -2 c24 -9 19
-21 -13 -32 -25 -9 -29 -8 -24 4 3 8 -1 14 -8 14 -11 0 -11 3 1 10 18 11 23
12 44 4z m331 -3 c3 -5 1 -12 -4 -15 -12 -8 -41 3 -41 15 0 12 37 12 45 0z
m-125 -51 c0 -13 -11 -13 -30 0 -12 8 -11 10 8 10 12 0 22 -4 22 -10z m110
-37 c9 -10 -73 6 -83 16 -6 6 7 6 34 0 24 -6 46 -13 49 -16z m53 -10 c-7 -2
-21 -2 -30 0 -10 3 -4 5 12 5 17 0 24 -2 18 -5z m-894 -308 c-2 -64 0 -69 26
-98 16 -16 27 -42 30 -66 2 -22 8 -49 14 -60 6 -11 11 -40 11 -64 0 -30 7 -51
20 -67 25 -28 34 -61 27 -96 -2 -14 2 -39 10 -55 8 -16 19 -62 25 -102 5 -39
15 -79 23 -87 19 -22 36 -85 29 -104 -6 -15 -9 -15 -30 5 -15 14 -41 24 -73
27 -28 2 -48 8 -45 13 3 5 -8 12 -24 15 -44 9 -34 36 19 51 l44 13 -45 -6
c-25 -3 -46 -9 -48 -14 -2 -6 -13 -10 -24 -10 -17 0 -18 3 -9 14 10 12 8 14
-11 10 -15 -3 -12 0 7 7 39 15 42 18 26 28 -8 5 -27 5 -42 1 -16 -5 -29 -5
-29 0 0 4 9 10 21 13 12 3 18 10 14 16 -9 16 -18 14 -44 -10 -21 -20 -51 -20
-51 -1 0 19 83 84 125 98 52 18 80 44 46 44 -12 0 -39 -9 -61 -20 -52 -27 -90
-12 -90 34 0 26 7 34 44 54 52 28 116 84 116 103 0 8 -8 5 -22 -8 -13 -11 -52
-39 -87 -62 -49 -32 -66 -39 -72 -29 -12 18 -11 28 1 28 6 0 10 4 10 10 0 5
20 37 45 71 25 34 45 65 45 70 0 14 -15 10 -36 -10 -18 -16 -24 -17 -51 -6
-17 7 -34 11 -37 8 -3 -4 -6 1 -6 10 0 21 -14 22 -30 2 -20 -24 -40 -18 -40
11 0 45 37 91 95 118 68 33 115 88 115 136 0 27 3 31 10 20 6 -8 10 -33 9 -55z
m-240 -66 c11 7 21 8 21 4 0 -11 -44 -73 -53 -73 -5 0 -5 5 -2 10 3 6 2 10 -3
10 -5 0 -6 14 -4 31 3 19 7 26 12 19 6 -9 13 -9 29 -1z m111 -227 c0 -12 -23
-32 -37 -32 -7 0 -26 -13 -41 -30 -36 -37 -45 -38 -29 -2 26 57 41 72 74 72
18 0 33 -4 33 -8z m35 -232 c-3 -5 -13 -10 -21 -10 -8 0 -14 5 -14 10 0 6 9
10 21 10 11 0 17 -4 14 -10z m28 -180 c-5 -19 -23 -29 -23 -12 0 7 20 32 26
32 1 0 0 -9 -3 -20z m110 -47 c-7 -2 -21 -2 -30 0 -10 3 -4 5 12 5 17 0 24 -2
18 -5z m-306 -799 c-3 -3 -12 -4 -19 -1 -8 3 -5 6 6 6 11 1 17 -2 13 -5z"/>
<path d="M4640 1566 c0 -8 -7 -22 -16 -31 -24 -23 -11 -29 14 -6 23 19 30 51
12 51 -5 0 -10 -6 -10 -14z"/>
<path d="M4665 1476 c-3 -9 -7 -23 -10 -32 -4 -12 -1 -15 11 -10 8 3 18 6 20
6 2 0 4 9 4 19 0 25 -19 37 -25 17z"/>
<path d="M4610 1290 c0 -5 5 -10 10 -10 6 0 10 5 10 10 0 6 -4 10 -10 10 -5 0
-10 -4 -10 -10z"/>
<path d="M4705 1280 c-15 -17 -16 -20 -3 -20 19 0 42 26 30 34 -5 3 -17 -3
-27 -14z"/>
<path d="M4576 1241 c-11 -4 -15 -10 -10 -13 5 -4 20 0 34 8 26 14 9 18 -24 5z"/>
<path d="M4700 1190 c0 -6 12 -8 26 -6 39 7 42 16 6 16 -18 0 -32 -5 -32 -10z"/>
<path d="M4578 1133 c12 -2 32 -2 45 0 12 2 2 4 -23 4 -25 0 -35 -2 -22 -4z"/>
<path d="M4688 1053 c12 -2 30 -2 40 0 9 3 -1 5 -23 4 -22 0 -30 -2 -17 -4z"/>
<path d="M4720 1000 c19 -5 45 -11 58 -15 13 -4 22 -3 22 3 0 15 -26 22 -73
21 l-42 -1 35 -8z"/>
<path d="M3570 3050 c0 -5 5 -10 10 -10 6 0 10 5 10 10 0 6 -4 10 -10 10 -5 0
-10 -4 -10 -10z"/>
<path d="M3572 2990 c0 -19 2 -27 5 -17 2 9 2 25 0 35 -3 9 -5 1 -5 -18z"/>
<path d="M3650 2951 c0 -5 7 -14 15 -21 13 -10 15 -9 15 9 0 12 -6 21 -15 21
-8 0 -15 -4 -15 -9z"/>
<path d="M3720 2870 c0 -12 41 -35 58 -32 6 2 12 -4 12 -13 0 -8 5 -15 10 -15
6 0 10 7 10 15 0 8 -4 15 -9 15 -5 0 -11 10 -15 23 -5 18 -8 20 -16 7 -6 -10
-10 -11 -10 -2 0 6 -9 12 -20 12 -11 0 -20 -4 -20 -10z"/>
<path d="M3840 2859 c0 -14 20 -20 36 -11 14 8 12 10 -10 14 -14 3 -26 2 -26
-3z"/>
<path d="M3607 2853 c-3 -5 -5 -24 -5 -42 1 -43 33 -60 78 -41 27 11 31 17 28
44 -2 22 -9 32 -23 33 -11 1 -32 5 -46 9 -15 3 -29 2 -32 -3z"/>
<path d="M3540 2540 c0 -5 5 -10 10 -10 6 0 10 5 10 10 0 6 -4 10 -10 10 -5 0
-10 -4 -10 -10z"/>
<path d="M4660 2379 c0 -40 19 -59 57 -59 34 0 35 1 21 18 -9 9 -19 27 -22 40
-10 30 -56 31 -56 1z"/>
<path d="M4400 2310 c0 -13 11 -13 30 0 12 8 11 10 -7 10 -13 0 -23 -4 -23
-10z"/>
<path d="M4222 1900 c0 -14 2 -19 5 -12 2 6 2 18 0 25 -3 6 -5 1 -5 -13z"/>
<path d="M4114 1809 c-3 -6 -1 -16 5 -22 8 -8 11 -5 11 11 0 24 -5 28 -16 11z"/>
<path d="M4094 1685 c-3 -19 -12 -39 -20 -46 -19 -16 -18 -24 9 -36 21 -10 22
-9 25 53 4 70 -3 84 -14 29z"/>
<path d="M4040 1698 c0 -17 18 -44 24 -37 8 7 -5 49 -15 49 -5 0 -9 -6 -9 -12z"/>
<path d="M4047 1556 c-4 -15 -6 -31 -2 -34 10 -10 16 6 13 35 l-3 28 -8 -29z"/>
<path d="M4212 1460 c0 -14 2 -19 5 -12 2 6 2 18 0 25 -3 6 -5 1 -5 -13z"/>
<path d="M4091 1253 c-1 -17 4 -35 9 -38 12 -7 12 22 0 50 -7 17 -9 15 -9 -12z"/>
<path d="M4104 1145 c-2 -33 11 -33 14 0 1 14 -2 25 -6 25 -4 0 -8 -11 -8 -25z"/>
<path d="M3832 1000 c-18 -29 -15 -38 4 -12 9 13 14 25 12 27 -2 2 -9 -5 -16
-15z"/>
<path d="M3983 980 c0 -25 2 -35 4 -22 2 12 2 32 0 45 -2 12 -4 2 -4 -23z"/>
<path d="M3851 904 c0 -11 3 -14 6 -6 3 7 2 16 -1 19 -3 4 -6 -2 -5 -13z"/>
<path d="M3806 833 c4 -26 10 -59 15 -73 l7 -25 1 26 c2 46 -11 119 -21 119
-5 0 -6 -20 -2 -47z"/>
<path d="M4714 868 c-4 -7 -3 -8 4 -4 6 4 21 2 32 -4 11 -6 20 -7 20 -1 0 19
-45 27 -56 9z"/>
<path d="M3979 822 c-3 -20 -2 -29 4 -23 5 5 7 19 5 32 -3 20 -5 19 -9 -9z"/>
<path d="M4771 798 c18 -24 34 -45 36 -47 2 -2 6 -2 9 1 9 10 -24 66 -45 78
-34 18 -34 11 0 -32z"/>
<path d="M4054 665 c0 -60 1 -84 3 -52 2 32 2 81 0 110 -2 29 -3 3 -3 -58z"/>
<path d="M3964 704 c3 -9 6 -23 6 -32 0 -12 3 -13 11 -5 13 13 3 53 -13 53 -5
0 -7 -7 -4 -16z"/>
<path d="M4112 620 c0 -14 2 -19 5 -12 2 6 2 18 0 25 -3 6 -5 1 -5 -13z"/>
<path d="M3986 592 c-4 -13 -5 -26 -2 -29 10 -11 18 4 14 29 l-4 23 -8 -23z"/>
<path d="M4690 576 c0 -2 8 -10 18 -17 15 -13 16 -12 3 4 -13 16 -21 21 -21
13z"/>
<path d="M3797 253 c-11 -11 -8 -141 3 -148 7 -5 10 20 9 74 -1 45 -3 81 -4
81 -1 0 -5 -3 -8 -7z"/>
<path d="M3870 176 c0 -37 4 -66 10 -66 6 0 10 26 10 59 0 33 -4 63 -10 66 -6
4 -10 -18 -10 -59z"/>
<path d="M4465 200 c-3 -5 3 -10 15 -10 12 0 18 5 15 10 -3 6 -10 10 -15 10
-5 0 -12 -4 -15 -10z"/>
<path d="M3926 165 c-9 -26 -7 -32 5 -12 6 10 9 21 6 23 -2 3 -7 -2 -11 -11z"/>
<path d="M3869 60 c-7 -25 -3 -60 8 -60 15 0 17 28 3 50 -5 8 -10 13 -11 10z"/>
<path d="M3940 10 c0 -5 5 -10 10 -10 6 0 10 5 10 10 0 6 -4 10 -10 10 -5 0
-10 -4 -10 -10z"/>
</g>
</svg>
